<?xml version="1.0" encoding="UTF-8"?> <svg xmlns="http://www.w3.org/2000/svg" width="400" height="65" viewBox="0 0 400 65" fill="none"><g clip-path="url(#clip0_220_18)"><rect width="400" height="64.7619" fill="white"></rect><path fill-rule="evenodd" clip-rule="evenodd" d="M161.61 16.37C161.61 18.5266 163.34 20.2211 165.426 20.2211C167.562 20.2211 169.292 18.5266 169.292 16.37C169.292 14.2134 167.562 12.4675 165.426 12.4675C163.34 12.4675 161.61 14.2134 161.61 16.37ZM92.4256 50.9274C82.9639 50.9274 74.1125 43.8927 74.1125 31.9286C74.1125 20.0157 82.9639 12.981 92.4256 12.981C101.887 12.981 110.79 20.0157 110.79 31.9286C110.79 43.8927 101.887 50.9274 92.4256 50.9274ZM92.4256 18.7834C86.3721 18.7834 80.3695 23.148 80.3695 31.9286C80.3695 40.7091 86.3721 45.0738 92.4256 45.0738C98.53 45.0738 104.533 40.7091 104.533 31.9286C104.533 23.148 98.53 18.7834 92.4256 18.7834ZM121.439 59.9134V47.3331C122.711 49.233 125.407 50.7734 128.968 50.7734C136.089 50.7734 140.617 45.1251 140.617 37.6282C140.617 30.2341 136.496 24.5857 129.171 24.5857C125.356 24.5857 122.507 26.3829 121.286 28.5396V25.1506H115.589V59.9134H121.439ZM128.052 45.4845C131.969 45.4845 134.716 42.4036 134.716 37.6282C134.716 32.9555 132.02 29.8746 128.052 29.8746C124.186 29.8746 121.388 32.9555 121.388 37.6282C121.388 42.4036 124.186 45.4845 128.052 45.4845ZM152.487 17.4997H147.146V21.2481C147.146 23.4561 145.976 25.1506 143.331 25.1506H142.059V30.4394H146.637V43.0198C146.637 47.6925 149.486 50.4653 154.064 50.4653C156.201 50.4653 157.32 50.0545 157.676 49.9005V44.971L157.397 45.0198C156.984 45.0853 156.267 45.1764 155.641 45.1764C153.454 45.1764 152.487 44.2522 152.487 42.0442V30.4394H157.625V25.1506H152.487V17.4997ZM168.376 25.1506V50.1572H162.526V25.1506H168.376ZM180.704 35.3175V50.1572H174.854V25.1506H180.501V28.3342C181.925 25.7667 185.028 24.4317 187.826 24.4317C191.082 24.4317 193.93 25.9208 195.253 28.8476C197.186 25.5614 200.086 24.4317 203.29 24.4317C207.767 24.4317 212.04 27.3072 212.04 33.9311V50.1572H206.343V34.9068C206.343 31.9799 204.867 29.7719 201.561 29.7719C198.458 29.7719 196.423 32.2366 196.423 35.3175V50.1572H190.624V34.9068C190.624 32.0312 189.199 29.7719 185.842 29.7719C182.688 29.7719 180.704 32.1339 180.704 35.3175ZM223.961 50.1572V25.1506H218.111V50.1572H223.961ZM221.011 20.2211C218.925 20.2211 217.195 18.5266 217.195 16.37C217.195 14.2134 218.925 12.4675 221.011 12.4675C223.147 12.4675 224.877 14.2134 224.877 16.37C224.877 18.5266 223.147 20.2211 221.011 20.2211ZM248.803 50.1572V44.9197H235.831L248.549 30.1827V25.1506H228.811V30.3881H241.122L228.557 44.9711V50.1572H248.803ZM263.471 29.3611C259.758 29.3611 257.621 32.2366 257.418 34.9068H269.576C269.474 31.9799 267.541 29.3611 263.471 29.3611ZM270.237 41.428C269.423 43.8927 267.592 45.7926 264.031 45.7926C260.368 45.7926 257.418 43.0712 257.265 39.2714H275.375C275.426 39.1687 275.527 38.3471 275.527 37.3715C275.527 29.4639 271.051 24.3804 263.42 24.3804C257.163 24.3804 251.364 29.6179 251.364 37.5255C251.364 45.998 257.316 50.9275 264.031 50.9275C269.983 50.9275 273.899 47.3844 275.222 43.0198L270.237 41.428ZM286.635 19.1942V30.4908H292.993C296.859 30.4908 299.199 28.3342 299.199 24.8939C299.199 21.4022 296.859 19.1942 292.993 19.1942H286.635ZM293.909 35.9337C300.827 35.9337 305.405 31.261 305.405 24.8425C305.405 18.4753 300.827 13.7512 293.909 13.7512H280.53V50.1572H286.635V35.9337H293.909ZM323.329 24.9965V31.0556C322.668 30.9529 322.007 30.9016 321.396 30.9016C316.818 30.9016 314.732 33.5717 314.732 38.2444V50.1572H308.831V25.1506H314.58V29.1557C315.75 26.4343 318.497 24.8425 321.752 24.8425C322.322 24.8425 322.827 24.9082 323.136 24.9608L323.329 24.9965ZM330.977 34.9068C331.181 32.2366 333.317 29.3611 337.031 29.3611C341.1 29.3611 343.033 31.9799 343.135 34.9068H330.977ZM337.59 45.7926C341.151 45.7926 342.983 43.8927 343.796 41.428L348.782 43.0198C347.459 47.3844 343.542 50.9275 337.59 50.9275C330.876 50.9275 324.924 45.998 324.924 37.5255C324.924 29.6179 330.723 24.3804 336.98 24.3804C344.61 24.3804 349.087 29.4639 349.087 37.3715C349.087 38.3471 348.985 39.1687 348.934 39.2714H330.825C330.977 43.0712 333.928 45.7926 337.59 45.7926ZM351.394 43.3793C351.699 46.2034 354.446 50.9275 361.618 50.9275C367.926 50.9275 370.979 46.7169 370.979 42.9171C370.979 39.22 368.537 36.3445 363.857 35.3176L360.092 34.5473C358.566 34.2393 357.6 33.2636 357.6 31.9286C357.6 30.3881 359.075 29.0531 361.161 29.0531C364.467 29.0531 365.535 31.3637 365.739 32.8015L370.724 31.3637C370.317 28.899 368.079 24.3804 361.161 24.3804C356.023 24.3804 352.055 28.0774 352.055 32.4421C352.055 35.8824 354.344 38.7579 358.719 39.7335L362.382 40.5551C364.365 40.9659 365.281 41.9929 365.281 43.3279C365.281 44.8684 364.009 46.2034 361.568 46.2034C358.414 46.2034 356.735 44.2008 356.532 41.9415L351.394 43.3793ZM378.627 41.9415L373.489 43.3793C373.794 46.2034 376.541 50.9275 383.714 50.9275C390.021 50.9275 393.074 46.7169 393.074 42.9171C393.074 39.22 390.632 36.3445 385.952 35.3176L382.187 34.5473C380.661 34.2393 379.695 33.2636 379.695 31.9286C379.695 30.3881 381.17 29.0531 383.256 29.0531C386.562 29.0531 387.631 31.3637 387.834 32.8015L392.819 31.3637C392.412 28.899 390.174 24.3804 383.256 24.3804C378.118 24.3804 374.15 28.0774 374.15 32.4421C374.15 35.8824 376.439 38.7579 380.814 39.7335L384.719 40.6096C386.535 41.052 387.376 42.0485 387.376 43.3279C387.376 44.8684 386.104 46.2034 383.663 46.2034C380.509 46.2034 378.83 44.2008 378.627 41.9415Z" fill="#12102F"></path><path fill-rule="evenodd" clip-rule="evenodd" d="M43.9355 34.6739C43.6732 37.626 42.3791 40.3943 40.277 42.5L40.2808 42.5037L31.3395 51.4627L31.3352 40.4054L32.0036 39.7357L31.9972 39.7294C32.7058 39.0229 33.0827 37.9837 32.9475 36.7672C32.8133 35.5604 32.2061 34.4137 31.3323 33.531V33.501H31.3025C30.4212 32.6232 29.2746 32.013 28.0683 31.8783C26.854 31.7427 25.817 32.1203 25.1118 32.8305L25.1052 32.8232L24.4319 33.4979L13.3981 33.4935L22.1644 24.7096C24.2703 22.5027 27.1155 21.1337 30.1663 20.8594C54.1109 -2.55614 64.6721 0.0899218 64.6721 0.0899218C64.6721 0.0899218 67.3146 10.6732 43.9355 34.6739ZM33.4597 27.2181C35.0907 28.3288 36.4946 29.7363 37.5971 31.3658C54.3528 14.5404 55.2982 9.48158 55.2982 9.48158C55.2982 9.48158 50.2388 10.4406 33.4597 27.2178V27.2181ZM26.4501 34.2408C26.4741 34.2149 26.4988 34.1899 26.5247 34.1661L26.6224 34.0682L26.6298 34.0756C26.9817 33.813 27.4793 33.7125 28.0671 33.8302C29.4146 34.1001 30.7251 35.4134 30.9944 36.7635C31.1119 37.3525 31.0115 37.851 30.7495 38.2037L30.75 38.2042L30.6235 38.3538L30.6108 38.3609C30.4376 38.5271 30.224 38.646 29.9908 38.706L24.4192 41.806L25.7989 43.1886L14.0788 49.4019L20.2822 43.1858L18.9026 41.8033L26.4501 34.2408ZM13.283 15.5074C3.37715 25.4332 3.37715 41.5262 13.283 51.4521C18.0164 56.215 24.4771 58.8966 31.2192 58.8966C37.9613 58.8966 44.422 56.215 49.1554 51.4521C56.3036 44.2894 58.2914 33.9159 55.1225 24.9651C56.6642 23.0061 57.9909 21.1785 59.1353 19.4774C64.991 31.1945 63.0494 45.825 53.2948 55.5998C47.469 61.4617 39.5173 64.7619 31.2193 64.7619C22.9214 64.7619 14.9697 61.4617 9.14387 55.5998C-3.04796 43.3831 -3.04796 23.5764 9.14387 11.3599C18.6557 1.79023 33.3303 -0.542561 45.3801 5.59955C43.6861 6.74146 41.8667 8.06474 39.916 9.60329C30.6397 6.21518 20.2231 8.52437 13.283 15.5074Z" fill="#4249FF"></path><path fill-rule="evenodd" clip-rule="evenodd" d="M400 19.041C400 21.7047 397.824 23.8961 395.132 23.8961C392.452 23.8961 390.303 21.7047 390.303 19.041C390.303 16.3773 392.452 14.1991 395.132 14.1991C397.824 14.1991 400 16.3773 400 19.041ZM391.338 19.041C391.338 21.2455 393.009 22.9382 395.132 22.9382C397.254 22.9382 398.926 21.2455 398.926 19.041C398.926 16.8366 397.254 15.157 395.132 15.157C393.009 15.157 391.338 16.8366 391.338 19.041ZM394.521 21.6392V19.6709H394.919L396.034 21.6392H397.188L395.994 19.5791C396.684 19.356 397.161 18.7524 397.161 18.0176C397.161 17.0859 396.392 16.3642 395.357 16.3642H393.513V21.6392H394.521ZM394.521 18.8048H395.211C395.808 18.8048 396.14 18.5162 396.14 18.0307C396.14 17.5189 395.808 17.2302 395.211 17.2302H394.521V18.8048Z" fill="#12102F"></path></g><defs><clipPath id="clip0_220_18"><rect width="400" height="64.7619" fill="white"></rect></clipPath></defs></svg> 